<?xml version="1.0" encoding="UTF-8"?>
<svg id="Capa_2" xmlns="http://www.w3.org/2000/svg" viewBox="0 0 444.73 184.47">
  <defs>
    <style>
      .cls-1 {
        opacity: .35;
      }
    </style>
  </defs>
  <g id="Capa_4">
    <g>
      <path class="cls-1" d="M106.82,146.85c-.02.08-.02.18-.03.26v-3.93c.05,1.2.06,2.42.03,3.67Z"/>
      <path d="M424.52,50.28c-24.73-28.81-78.25-30.64-107.72,0-37.97,39.47-7.55,119.36-72.38,129.66-25.78,2.2-28.6-25.35-31.92-38.44-5.57-21.96-6.06-85-22.67-101.78-28.25-27.15-73.4-.96-84.65,30.99-1.55-13.44-12.69-43.74-49.81-43.74S-15.62,61.06,19.27,90.27c17.9,13.89,45.5,19.91,63.19,34.3,14.65,10.79,13.86,38.02-.61,48.16-27.13,17.91-74.72,4.75-79.44-30.4l-2.41.61,4.81,27.08c18.48,14.13,47.12,18,70.36,11.07,17.18-5.11,29.76-19.75,31.62-37.58,3.1-29.68-8.36-68.94,18.68-95.7,12.87-14.9,37.96-21.33,52.32-6.29,23.53,21.78,4.2,127.87,45.89,140.22,34.61,10.25,55.21-16.18,67.36-27.44,5.44-5.04,13.9-4.81,19.07.5,2.38,2.45,4.44,5.38,6.68,7.71,26.48,30.09,82.12,28.42,107.72,0,26.89-26.72,27.01-85.38,0-112.24ZM93.54,115.26c-20.73-20.84-69.49-21.41-75.19-54.19-.96-32.09,43.88-38.77,64.52-21.87,13.29,10.88,10.67,32.37,10.67,76.05ZM422.36,148.3c-8.28,16.92-24.07,29.23-42.53,32.97-66.92,13.56-95.25-96.19-42.56-140.01,16.55-14.11,50.38-13.92,67.12,0,28.79,23.59,34.72,72.84,17.98,107.04Z"/>
      <path d="M92.64,17.56c-9.61-9.18,5.26-24.05,14.44-14.44,9.61,9.18-5.27,24.06-14.44,14.44Z"/>
    </g>
  </g>
</svg>