<?xml version="1.0" encoding="UTF-8"?>
<svg id="Capa_2" xmlns="http://www.w3.org/2000/svg" viewBox="0 0 216.01 142.35">
  <defs>
    <style>
      .cls-1 {
        fill: #fff;
      }
    </style>
  </defs>
  <g id="Capa_4">
    <g>
      <path class="cls-1" d="M216.01,28.92c-9.41,40.71,8.82,77.08-40.78,108.24-20.36,10.13-51.69,6-61.1-17.27-12.03-25.19,13.29-85.92-28.01-88.4-52.22,2.24-33.01,68.25-35.98,109.02h-22.78c9.41-40.71-8.82-77.07,40.78-108.24,18.84-9.21,47.24-6.92,58.76,12.73,8.64,11.67,4.99,42.09,5.7,56.41-2.09,31.86,19.54,46.67,46.79,29.56,22.86-17.46,11.96-68,13.82-102.06h22.8Z"/>
      <circle class="cls-1" cx="9" cy="9" r="9"/>
    </g>
  </g>
</svg>