<?xml version="1.0" encoding="UTF-8"?>
<svg id="Capa_2" xmlns="http://www.w3.org/2000/svg" viewBox="0 0 444.73 143.41">
  <g id="Capa_4">
    <g>
      <path d="M85.79,51.58c-2.68-5.66-7.11-10.46-13.29-14.41-6.18-3.95-13.82-5.92-22.9-5.92-7.75,0-14.45,2.05-20.11,6.15-5.66,4.1-8.49,9.05-8.49,14.85,0,2.83.82,5.74,2.46,8.72,2.08,3.43,5.4,6.33,9.94,8.71,4.54,2.38,10.91,5.14,19.1,8.27,10.42,4.02,18.51,7.67,24.24,10.95,5.73,3.28,9.72,7.67,11.95,13.18,1.34,3.13,2.01,6.33,2.01,9.6,0,5.51-1.83,10.69-5.47,15.53-3.65,4.84-8.71,8.75-15.19,11.73-6.48,2.98-13.82,4.47-22.01,4.47-14.6,0-25.84-2.83-33.73-8.49-7.9-5.66-12.66-12.51-14.3-20.55l3.35.22c2.68,7,7.52,12.96,14.52,17.87,7,4.92,16.01,7.37,27.03,7.37,8.49,0,15.23-1.93,20.22-5.81,4.99-3.87,7.48-8.56,7.48-14.07,0-3.87-1.34-7.67-4.02-11.4-2.23-3.27-5.62-6.07-10.17-8.38-4.55-2.31-11.28-5.25-20.22-8.83-11.17-4.02-19.81-7.89-25.92-11.61-6.11-3.72-9.68-8.49-10.73-14.3-.3-2.08-.45-3.65-.45-4.69,0-6.11,2.08-11.65,6.25-16.64,4.17-4.99,9.79-8.94,16.87-11.84,7.07-2.91,14.63-4.36,22.68-4.36,11.76,0,21.23,2.31,28.37,6.93,7.15,4.62,11.84,10.2,14.07,16.76h-3.57Z"/>
      <path d="M99.78,141.4c.45-18.77.67-37.38.67-55.85s-.22-37.38-.67-55.85h23.24c-3.2,23.8-4.62,39.04-4.62,63,0,10.72.64,26.8,4.17,48.7h-22.79Z"/>
      <path d="M320.89,29.81c-9.41,40.71,8.82,77.08-40.78,108.24-20.36,10.13-51.69,6-61.1-17.27-12.03-25.19,13.29-85.92-28.01-88.4-52.22,2.24-33.01,68.25-35.98,109.02h-22.78c9.41-40.71-8.82-77.07,40.78-108.24,18.84-9.21,47.24-6.92,58.76,12.73,8.64,11.67,4.99,42.09,5.7,56.41-2.09,31.86,19.54,46.67,46.79,29.56,22.86-17.46,11.96-68,13.82-102.06h22.8Z"/>
      <path d="M385.31,27.9c12.21,0,22.82,2.83,31.84,8.49,9.01,5.66,15.86,13.04,20.55,22.12,4.69,9.09,7.04,18.69,7.04,28.82s-2.2,18.69-6.59,27.03c-4.39,8.34-11.1,15.08-20.11,20.22-9.01,5.14-20,7.71-32.95,7.71s-23.05-2.79-32.06-8.38c-9.01-5.59-15.86-12.85-20.55-21.79-4.69-8.93-7.04-18.47-7.04-28.6,0-9.23,2.05-17.91,6.14-26.03,4.1-8.12,10.28-14.85,18.54-20.22,8.27-5.36,18.28-8.41,30.05-9.16,1.19-.15,2.9-.23,5.14-.23ZM362.41,37.85c-5.44,4.69-9.53,10.83-12.29,18.43-2.76,7.6-4.13,15.79-4.13,24.58,0,9.83,1.64,19.21,4.92,28.15,3.27,8.94,8.12,16.2,14.52,21.79,6.4,5.59,14.07,8.38,23.01,8.38,11.91,0,20.96-4.54,27.14-13.63,6.18-9.08,9.27-20.25,9.27-33.51,0-9.98-1.75-19.7-5.25-29.16-3.5-9.46-8.45-17.16-14.86-23.12-6.41-5.96-13.85-8.94-22.34-8.94-7.9,0-14.56,2.35-20,7.04Z"/>
      <circle cx="111.4" cy="9" r="9"/>
    </g>
  </g>
</svg>